<svg xmlns="http://www.w3.org/2000/svg" width="21.319" height="29.503" viewBox="0 0 21.319 29.503">
  <path id="bitcoin" d="M20.217,9.078a4.2,4.2,0,0,1-2.323,4.575A5.327,5.327,0,0,1,21,15.478a5.255,5.255,0,0,1,.8,3.794,6.69,6.69,0,0,1-.576,2.216,4.9,4.9,0,0,1-1.143,1.578,5.816,5.816,0,0,1-1.72,1.038,10.452,10.452,0,0,1-2.155.611,21.6,21.6,0,0,1-2.58.266V29.5H10.891v-4.45q-1.419,0-2.163-.018V29.5H6V24.982q-.319,0-.957-.009t-.975-.009H.519l.55-3.245H3.037a.947.947,0,0,0,1.029-.9V13.688h.284a1.773,1.773,0,0,0-.284-.018V8.581A1.408,1.408,0,0,0,2.488,7.376H.519V4.468l3.759.018q1.135,0,1.72-.018V0H8.729V4.38q1.454-.035,2.163-.035V0h2.731V4.468a15.752,15.752,0,0,1,2.482.4,8.082,8.082,0,0,1,2,.8,4.059,4.059,0,0,1,1.463,1.383A4.513,4.513,0,0,1,20.217,9.078Zm-3.812,9.663a2.364,2.364,0,0,0-.266-1.135,2.665,2.665,0,0,0-.656-.815,3.365,3.365,0,0,0-1.019-.541,8.546,8.546,0,0,0-1.161-.328,10.643,10.643,0,0,0-1.312-.16q-.781-.054-1.224-.053t-1.143.018q-.7.017-.842.018v5.993q.142,0,.656.009t.851.009q.337,0,.94-.026t1.038-.071q.434-.045,1.01-.151a6.675,6.675,0,0,0,.984-.248,6.16,6.16,0,0,0,.842-.372,2.437,2.437,0,0,0,.7-.532,2.516,2.516,0,0,0,.434-.709,2.356,2.356,0,0,0,.169-.9ZM15.147,10.3a2.332,2.332,0,0,0-.221-1.038,2.461,2.461,0,0,0-.541-.745,2.661,2.661,0,0,0-.851-.5,6.038,6.038,0,0,0-.975-.293,9.84,9.84,0,0,0-1.091-.142,10.252,10.252,0,0,0-1.029-.044q-.382.009-.957.018t-.7.009v5.443l.611.009q.523.009.824,0t.887-.035a7.413,7.413,0,0,0,.975-.1q.39-.071.913-.2a2.994,2.994,0,0,0,.86-.328,4.884,4.884,0,0,0,.656-.479,1.706,1.706,0,0,0,.479-.683,2.46,2.46,0,0,0,.16-.9Z" transform="translate(-0.519)" fill="#8c96a1"/>
</svg>
