<svg xmlns="http://www.w3.org/2000/svg" width="67.097" height="48.393" viewBox="0 0 67.097 48.393">
  <g id="Logo-onlydesign" transform="translate(-48.265 -53.599)">
    <path id="Path_1" data-name="Path 1" d="M214.7,70.244h-.222a1.577,1.577,0,0,1-1.578-1.579V54.242c5.537-.111,11.018-.858,15.805,2.8,5.011,3.848,8.416,11.9,2.492,20.154a1.625,1.625,0,0,0,0,1.854c3.792,5.371,4.568,11.129.526,17.026-4.6,6.755-11.6,6.455-18.8,5.98V87.685a1.6,1.6,0,0,1,1.5-1.578h.027a1.579,1.579,0,0,1,1.661,1.578V98.676c6.506.969,11.185-.969,13.593-5.4,2.741-5.039,1.744-8.8-4.07-15.143,5.426-5.26,6.728-9.468,4.4-14.4-2.27-4.845-6.284-6.644-13.814-6.035V68.665a1.514,1.514,0,0,1-1.519,1.579Z" transform="translate(-119.057 -0.366)" fill="#fff"/>
    <path id="Path_2" data-name="Path 2" d="M204.139,161.892a1.564,1.564,0,0,1-1.8-1.91c.138-.579.609-1.024,1.716-1.329a4.152,4.152,0,0,0,2.99-4.761,4.293,4.293,0,0,0-4.1-4.181c-3.405-.222-6.838-.055-10.576-.055v19.518H189.3V146.64a148.576,148.576,0,0,1,15.088.138c3.9.414,6.478,4.761,5.924,8.5A7.565,7.565,0,0,1,204.139,161.892Z" transform="translate(-101.991 -67.183)" fill="#fff"/>
    <path id="Path_3" data-name="Path 3" d="M203.605,64.426a1.605,1.605,0,0,1,1.076-3.018,7.8,7.8,0,0,1,5.537,7.059c.222,3.792-2.741,7.861-6.506,8.139-4.817.331-9.662.083-14.617.083V54.1h3.045V73.507c3.848,0,7.365.165,10.852-.055a4.2,4.2,0,0,0,3.932-4.042,4.132,4.132,0,0,0-2.852-4.817C203.883,64.509,203.746,64.482,203.605,64.426Z" transform="translate(-101.845 -0.362)" fill="#fff"/>
    <path id="Path_4" data-name="Path 4" d="M68.041,70.243h.2a1.577,1.577,0,0,0,1.572-1.579v-14.4a.027.027,0,0,0-.027-.027c-5.537-.111-11.018-.858-15.805,2.8-5.01,3.851-8.413,11.908-2.491,20.157a1.624,1.624,0,0,1,0,1.854c-3.792,5.371-4.568,11.129-.526,17.026,4.6,6.755,11.6,6.455,18.8,5.98V87.685a1.562,1.562,0,0,0-1.5-1.578h0A1.564,1.564,0,0,0,66.6,87.685V98.676c-6.505.968-11.184-.966-13.59-5.4-2.741-5.039-1.744-8.8,4.07-15.143-5.426-5.26-6.728-9.468-4.4-14.4,2.27-4.845,6.284-6.644,13.787-6.035a.027.027,0,0,1,.027.027V68.664a1.52,1.52,0,0,0,1.547,1.579Z" transform="translate(0 -0.366)" fill="#fff"/>
    <path id="Path_5" data-name="Path 5" d="M79.779,161.967a1.564,1.564,0,0,0,1.8-1.91c-.138-.579-.609-1.024-1.716-1.329a4.152,4.152,0,0,1-2.99-4.761,4.293,4.293,0,0,1,4.1-4.181c3.405-.222,6.838-.055,10.576-.055v19.461h3.073V146.74a148.576,148.576,0,0,0-15.088.138c-3.9.414-6.478,4.762-5.924,8.5A7.563,7.563,0,0,0,79.779,161.967Z" transform="translate(-18.271 -67.256)" fill="#fff"/>
    <path id="Path_6" data-name="Path 6" d="M80.187,64.426a1.605,1.605,0,0,0-1.076-3.018,7.8,7.8,0,0,0-5.537,7.059c-.222,3.792,2.741,7.861,6.506,8.139,4.817.331,9.662.083,14.617.083V54.1H91.652V73.507c-3.848,0-7.365.165-10.852-.055a4.2,4.2,0,0,1-3.932-4.042,4.132,4.132,0,0,1,2.852-4.817C79.91,64.509,80.048,64.482,80.187,64.426Z" transform="translate(-18.292 -0.362)" fill="#fff"/>
    <path id="Path_7" data-name="Path 7" d="M165.94,101.992h0a1.43,1.43,0,0,1-1.44-1.44V55.039a1.43,1.43,0,0,1,1.44-1.44h0a1.43,1.43,0,0,1,1.44,1.44v45.513a1.43,1.43,0,0,1-1.44,1.44Z" transform="translate(-84.057)" fill="#fff"/>
  </g>
</svg>
