<svg xmlns="http://www.w3.org/2000/svg" width="356" height="255.573" viewBox="0 0 356 255.573">
  <g id="INTG" transform="translate(-325.775 -2307.199)">
    <path id="Path_11117" data-name="Path 11117" d="M177.78-.486c66.962,0,177.78-1.988,177.78-1.988V17.991c0,10.205-79.595,18.478-177.78,18.478S0,28.2,0,17.991V-2.395S110.425-.486,177.78-.486Z" transform="translate(325.995 2526.303)" fill="#081f39"/>
    <ellipse id="Ellipse_466" data-name="Ellipse 466" cx="178" cy="15" rx="178" ry="15" transform="translate(325.775 2506.649)" fill="#122f4e"/>
    <g id="Group_978" data-name="Group 978" transform="translate(385.796 2307.199)">
      <path id="Path_222" data-name="Path 222" d="M219.229,110.859h-.78a5.547,5.547,0,0,1-5.549-5.552V54.587c19.471-.39,38.748-3.018,55.582,9.833,17.62,13.532,29.6,41.864,8.762,70.875a5.716,5.716,0,0,0,0,6.521c13.337,18.886,16.064,39.138,1.851,59.875-16.163,23.755-40.793,22.7-66.105,21.028V172.195a5.625,5.625,0,0,1,5.258-5.549h.1a5.552,5.552,0,0,1,5.841,5.549v38.652c22.879,3.408,39.333-3.408,47.8-18.985,9.638-17.719,6.135-30.96-14.312-53.254,19.081-18.5,23.659-33.3,15.479-50.635-7.982-17.038-22.1-23.365-48.581-21.223v38.558a5.323,5.323,0,0,1-5.343,5.552Z" transform="translate(-52.615 -53.612)" fill="#008cfc"/>
      <path id="Path_223" data-name="Path 223" d="M241.483,200.622a5.5,5.5,0,0,1-6.329-6.716c.486-2.037,2.142-3.6,6.035-4.674A14.6,14.6,0,0,0,251.7,172.487c-.873-8.177-5.939-14.213-14.408-14.7-11.975-.78-24.046-.2-37.191-.2v68.64H189.3V146.986s35.634-1.362,53.059.486c13.727,1.455,22.78,16.745,20.833,29.889A26.6,26.6,0,0,1,241.483,200.622Z" transform="translate(-51.993 -56.052)" fill="#ff861f"/>
      <path id="Path_224" data-name="Path 224" d="M240.123,90.415A5.646,5.646,0,0,1,243.906,79.8a27.436,27.436,0,0,1,19.471,24.826c.78,13.337-9.638,27.646-22.879,28.623-16.94,1.164-33.978.291-51.4.291V54.1H199.8v68.247c13.532,0,25.9.582,38.163-.195,7.982-.486,12.851-6.329,13.826-14.213.975-7.787-2.328-14.6-10.028-16.94C241.1,90.706,240.618,90.61,240.123,90.415Z" transform="translate(-51.997 -53.611)" fill="#ff861f"/>
      <path id="Path_225" data-name="Path 225" d="M117.811,110.867h.69a5.547,5.547,0,0,0,5.529-5.552V54.679a.1.1,0,0,0-.1-.1c-19.471-.39-38.748-3.018-55.582,9.833C50.734,77.959,38.765,106.292,59.592,135.3a5.713,5.713,0,0,1,0,6.521C46.255,160.71,43.528,180.961,57.741,201.7c16.163,23.755,40.793,22.7,66.105,21.028V172.2a5.491,5.491,0,0,0-5.258-5.549h0a5.5,5.5,0,0,0-5.841,5.549v38.652c-22.876,3.4-39.33-3.4-47.792-18.985-9.638-17.719-6.134-30.96,14.312-53.254-19.081-18.5-23.659-33.3-15.479-50.635,7.982-17.038,22.1-23.365,48.485-21.223a.1.1,0,0,1,.1.1v38.462a5.346,5.346,0,0,0,5.442,5.552Z" transform="translate(-48.265 -53.619)" fill="#008cfc"/>
      <path id="Path_226" data-name="Path 226" d="M95.5,200.635a5.5,5.5,0,0,0,6.329-6.716c-.486-2.037-2.142-3.6-6.035-4.674A14.6,14.6,0,0,1,85.281,172.5c.873-8.177,5.939-14.213,14.408-14.7,11.975-.78,24.046-.2,37.191-.2v68.436h10.808V147.086s-35.634-1.362-53.059.486c-13.727,1.455-22.78,16.745-20.833,29.889A26.6,26.6,0,0,0,95.5,200.635Z" transform="translate(-48.93 -56.056)" fill="#ff861f"/>
      <path id="Path_227" data-name="Path 227" d="M96.858,90.415A5.646,5.646,0,0,0,93.075,79.8,27.436,27.436,0,0,0,73.6,104.628c-.78,13.337,9.638,27.646,22.879,28.623,16.939,1.164,33.978.291,51.4.291V54.1H137.177v68.247c-13.532,0-25.9.582-38.163-.195-7.982-.486-12.851-6.329-13.826-14.213-.975-7.787,2.328-14.6,10.028-16.94C95.883,90.706,96.369,90.61,96.858,90.415Z" transform="translate(-48.922 -53.611)" fill="#ff861f"/>
      <path id="Path_228" data-name="Path 228" d="M169.564,223.78h0a5.029,5.029,0,0,1-5.064-5.064V58.663a5.029,5.029,0,0,1,5.064-5.064h0a5.029,5.029,0,0,1,5.064,5.064V218.716a5.028,5.028,0,0,1-5.063,5.064Z" transform="translate(-51.338 -53.599)" fill="#008cfc"/>
    </g>
    <ellipse id="Ellipse_467" data-name="Ellipse 467" cx="76" cy="4" rx="76" ry="4" transform="translate(427.775 2517.649)" opacity="0.25"/>
    <g id="Group_3306" data-name="Group 3306" transform="translate(496.704 2544.301)">
      <g id="Group_4" data-name="Group 4" transform="translate(-14 0.428)">
        <path id="Path_11" data-name="Path 11" d="M312.623,77.6V89.076H310.9V77.6Z" transform="translate(-310.9 -77.6)"/>
      </g>
      <g id="Group_6" data-name="Group 6" transform="translate(5.624 0.428)">
        <path id="Path_13" data-name="Path 13" d="M387.363,79.233v9.843H385.64V79.233H383V77.6h7v1.633h-2.64Z" transform="translate(-383 -77.6)"/>
        <path id="Path_11161" data-name="Path 11161" d="M330.9,85.08V74.1l7.494,7.835V74.8h1.543V85.7l-7.494-7.815V85.08Z" transform="translate(-343.788 -74.226)"/>
      </g>
      <g id="Group_11" data-name="Group 11" transform="translate(14.908 0)">
        <path id="Path_18" data-name="Path 18" d="M575.484,82.326h4.743v.38a7.706,7.706,0,0,1-.313,2.282,5.042,5.042,0,0,1-1.006,1.723,5.171,5.171,0,0,1-4.072,1.789,5.55,5.55,0,0,1-4.117-1.745A5.962,5.962,0,0,1,574.993,76.6a5.628,5.628,0,0,1,2.506.559,7.093,7.093,0,0,1,2.193,1.789l-1.23,1.186a4.177,4.177,0,0,0-3.444-1.878,4.1,4.1,0,0,0-3.043,1.252,4.182,4.182,0,0,0-1.23,3.087,4.053,4.053,0,0,0,1.365,3.154,4.121,4.121,0,0,0,2.8,1.141,3.488,3.488,0,0,0,2.3-.87,3.153,3.153,0,0,0,1.14-2.08h-2.865Z" transform="translate(-568.995 -76.599)"/>
      </g>
    </g>
    <g id="Group_3283" data-name="Group 3283" transform="translate(497.704 2543.301)">
      <g id="Group_4-2" data-name="Group 4" transform="translate(-14 0.428)">
        <path id="Path_11-2" data-name="Path 11" d="M312.623,77.6V89.076H310.9V77.6Z" transform="translate(-310.9 -77.6)" fill="#fff"/>
      </g>
      <g id="Group_6-2" data-name="Group 6" transform="translate(5.624 0.428)">
        <path id="Path_13-2" data-name="Path 13" d="M387.363,79.233v9.843H385.64V79.233H383V77.6h7v1.633h-2.64Z" transform="translate(-383 -77.6)" fill="#fff"/>
        <path id="Path_11161-2" data-name="Path 11161" d="M330.9,85.08V74.1l7.494,7.835V74.8h1.543V85.7l-7.494-7.815V85.08Z" transform="translate(-343.788 -74.226)" fill="#fff"/>
      </g>
      <g id="Group_11-2" data-name="Group 11" transform="translate(14.908 0)">
        <path id="Path_18-2" data-name="Path 18" d="M575.484,82.326h4.743v.38a7.706,7.706,0,0,1-.313,2.282,5.042,5.042,0,0,1-1.006,1.723,5.171,5.171,0,0,1-4.072,1.789,5.55,5.55,0,0,1-4.117-1.745A5.962,5.962,0,0,1,574.993,76.6a5.628,5.628,0,0,1,2.506.559,7.093,7.093,0,0,1,2.193,1.789l-1.23,1.186a4.177,4.177,0,0,0-3.444-1.878,4.1,4.1,0,0,0-3.043,1.252,4.182,4.182,0,0,0-1.23,3.087,4.053,4.053,0,0,0,1.365,3.154,4.121,4.121,0,0,0,2.8,1.141,3.488,3.488,0,0,0,2.3-.87,3.153,3.153,0,0,0,1.14-2.08h-2.865Z" transform="translate(-568.995 -76.599)" fill="#fff"/>
      </g>
    </g>
  </g>
</svg>
