<svg xmlns="http://www.w3.org/2000/svg" width="265.683" height="265.683" viewBox="133.167 1720.15 265.683 265.683"><path d="M342.89 1985H193.112a19.086 19.086 0 0 1-12.676-4.812l-36.006-31.939a19.111 19.111 0 0 1-6.43-14.29V1776.04c0-5.46 2.345-10.67 6.43-14.292l36.006-31.937c3.499-3.103 8-4.812 12.676-4.812H342.89c4.676 0 9.177 1.709 12.676 4.812l36.006 31.939a19.11 19.11 0 0 1 6.428 14.29v157.918a19.118 19.118 0 0 1-6.428 14.29l-36.006 31.94A19.093 19.093 0 0 1 342.89 1985" stroke-linejoin="round" stroke-linecap="round" stroke-width="4" stroke="#008cfc" fill="transparent" data-name="Path 331"/></svg>