<svg xmlns="http://www.w3.org/2000/svg" width="26.675" height="24.686" viewBox="0 0 26.675 24.686">
  <path id="tether" d="M27.645,20.522c0-1.682-4.577-3.085-10.659-3.409v-2.68H24.58V8.855H3.814v5.578h7.594v2.693C5.437,17.472.97,18.86.97,20.522s4.467,3.05,10.438,3.4v9.624h5.578V23.931C23.068,23.607,27.645,22.2,27.645,20.522ZM14.308,22.179c-6.528,0-11.821-1.01-11.821-2.258,0-1.056,3.795-1.942,8.921-2.189v.636h0v2.6c.924.052,1.9.079,2.9.079.924,0,1.821-.023,2.679-.066V17.722c5.237.232,9.142,1.127,9.142,2.2C26.128,21.168,20.836,22.179,14.308,22.179Z" transform="translate(-0.97 -8.855)" fill="#8c96a1"/>
</svg>
