<svg xmlns="http://www.w3.org/2000/svg" width="28.56" height="28.56" viewBox="0 0 28.56 28.56">
  <g id="usdc" transform="translate(0.001)">
    <path id="Path_11165" data-name="Path 11165" d="M14.279,28.56A14.246,14.246,0,1,0,4.172,24.388,14.28,14.28,0,0,0,14.279,28.56Z" fill="#8c96a1"/>
    <path id="Path_11166" data-name="Path 11166" d="M189.58,138.082c0-2.082-1.249-2.8-3.748-3.094-1.785-.238-2.142-.714-2.142-1.547s.6-1.368,1.785-1.368a1.761,1.761,0,0,1,1.964,1.249.451.451,0,0,0,.417.3h.952a.407.407,0,0,0,.416-.416v-.06a2.972,2.972,0,0,0-2.678-2.439v-1.428c0-.238-.179-.417-.476-.476h-.893c-.238,0-.416.179-.476.476v1.368a3.034,3.034,0,0,0-2.915,2.915c0,1.964,1.19,2.737,3.689,3.035,1.667.3,2.2.654,2.2,1.606s-.833,1.607-1.964,1.607c-1.547,0-2.085-.655-2.261-1.547a.435.435,0,0,0-.416-.357h-1.01a.407.407,0,0,0-.416.416v.06a3.325,3.325,0,0,0,3.156,2.856v1.428c0,.238.178.417.476.476h.893c.238,0,.416-.179.476-.476v-1.428a3.26,3.26,0,0,0,2.975-3.156Z" transform="translate(-171.374 -121.541)" fill="#001730"/>
    <path id="Path_11167" data-name="Path 11167" d="M70.534,92.524a8.9,8.9,0,0,1,0-16.721.6.6,0,0,0,.357-.6v-.831a.453.453,0,0,0-.357-.476.358.358,0,0,0-.238.06,10.707,10.707,0,0,0,0,20.408.362.362,0,0,0,.536-.238c.059-.06.059-.119.059-.238v-.833A.793.793,0,0,0,70.534,92.524Zm6.307-18.562a.362.362,0,0,0-.535.238c-.06.06-.06.119-.06.238v.831a.789.789,0,0,0,.357.595,8.9,8.9,0,0,1,0,16.722.6.6,0,0,0-.357.6v.833a.452.452,0,0,0,.357.476.36.36,0,0,0,.238-.059,10.752,10.752,0,0,0,0-20.468Z" transform="translate(-59.289 -69.735)" fill="#001730"/>
  </g>
</svg>
