<svg xmlns="http://www.w3.org/2000/svg" width="33.16" height="26.528" viewBox="0 0 33.16 26.528">
  <path id="Developer" d="M6.487,34.528a2.386,2.386,0,0,1-1.741-.746A2.386,2.386,0,0,1,4,32.041V10.487a2.386,2.386,0,0,1,.746-1.741A2.386,2.386,0,0,1,6.487,8H34.673a2.55,2.55,0,0,1,2.487,2.487V32.041a2.55,2.55,0,0,1-2.487,2.487Zm0-2.487H34.673V13.969H6.487Zm6.632-2.984-1.741-1.741L15.648,23l-4.311-4.311,1.782-1.741L19.171,23Zm7.876.166V26.735h9.119v2.487Z" transform="translate(-4 -8)" fill="#fff"/>
</svg>
