<svg xmlns="http://www.w3.org/2000/svg" width="194.464" height="48.393" viewBox="0 0 194.464 48.393">
  <g id="logo" transform="translate(-48.265 -53.599)">
    <g id="Group_1126" data-name="Group 1126">
      <path id="Path_1" data-name="Path 1" d="M214.7,70.244h-.222a1.577,1.577,0,0,1-1.578-1.579V54.242c5.537-.111,11.018-.858,15.805,2.8,5.011,3.848,8.416,11.9,2.492,20.154a1.625,1.625,0,0,0,0,1.854c3.792,5.371,4.568,11.129.526,17.026-4.6,6.755-11.6,6.455-18.8,5.98V87.685a1.6,1.6,0,0,1,1.5-1.578h.027a1.579,1.579,0,0,1,1.661,1.578V98.676c6.506.969,11.185-.969,13.593-5.4,2.741-5.039,1.744-8.8-4.07-15.143,5.426-5.26,6.728-9.468,4.4-14.4-2.27-4.845-6.284-6.644-13.814-6.035V68.665a1.514,1.514,0,0,1-1.519,1.579Z" transform="translate(-119.057 -0.366)" fill="#fff"/>
      <path id="Path_2" data-name="Path 2" d="M204.139,161.892a1.564,1.564,0,0,1-1.8-1.91c.138-.579.609-1.024,1.716-1.329a4.152,4.152,0,0,0,2.99-4.761,4.293,4.293,0,0,0-4.1-4.181c-3.405-.222-6.838-.055-10.576-.055v19.518H189.3V146.64a148.576,148.576,0,0,1,15.088.138c3.9.414,6.478,4.761,5.924,8.5A7.565,7.565,0,0,1,204.139,161.892Z" transform="translate(-101.991 -67.183)" fill="#fff"/>
      <path id="Path_3" data-name="Path 3" d="M203.605,64.426a1.605,1.605,0,0,1,1.076-3.018,7.8,7.8,0,0,1,5.537,7.059c.222,3.792-2.741,7.861-6.506,8.139-4.817.331-9.662.083-14.617.083V54.1h3.045V73.507c3.848,0,7.365.165,10.852-.055a4.2,4.2,0,0,0,3.932-4.042,4.132,4.132,0,0,0-2.852-4.817C203.883,64.509,203.746,64.482,203.605,64.426Z" transform="translate(-101.845 -0.362)" fill="#fff"/>
      <path id="Path_4" data-name="Path 4" d="M68.041,70.243h.2a1.577,1.577,0,0,0,1.572-1.579v-14.4a.027.027,0,0,0-.027-.027c-5.537-.111-11.018-.858-15.805,2.8-5.01,3.851-8.413,11.908-2.491,20.157a1.624,1.624,0,0,1,0,1.854c-3.792,5.371-4.568,11.129-.526,17.026,4.6,6.755,11.6,6.455,18.8,5.98V87.685a1.562,1.562,0,0,0-1.5-1.578h0A1.564,1.564,0,0,0,66.6,87.685V98.676c-6.505.968-11.184-.966-13.59-5.4-2.741-5.039-1.744-8.8,4.07-15.143-5.426-5.26-6.728-9.468-4.4-14.4,2.27-4.845,6.284-6.644,13.787-6.035a.027.027,0,0,1,.027.027V68.664a1.52,1.52,0,0,0,1.547,1.579Z" transform="translate(0 -0.366)" fill="#fff"/>
      <path id="Path_5" data-name="Path 5" d="M79.779,161.967a1.564,1.564,0,0,0,1.8-1.91c-.138-.579-.609-1.024-1.716-1.329a4.152,4.152,0,0,1-2.99-4.761,4.293,4.293,0,0,1,4.1-4.181c3.405-.222,6.838-.055,10.576-.055v19.461h3.073V146.74a148.576,148.576,0,0,0-15.088.138c-3.9.414-6.478,4.762-5.924,8.5A7.563,7.563,0,0,0,79.779,161.967Z" transform="translate(-18.271 -67.256)" fill="#fff"/>
      <path id="Path_6" data-name="Path 6" d="M80.187,64.426a1.605,1.605,0,0,0-1.076-3.018,7.8,7.8,0,0,0-5.537,7.059c-.222,3.792,2.741,7.861,6.506,8.139,4.817.331,9.662.083,14.617.083V54.1H91.652V73.507c-3.848,0-7.365.165-10.852-.055a4.2,4.2,0,0,1-3.932-4.042,4.132,4.132,0,0,1,2.852-4.817C79.91,64.509,80.048,64.482,80.187,64.426Z" transform="translate(-18.292 -0.362)" fill="#fff"/>
      <path id="Path_7" data-name="Path 7" d="M165.94,101.992h0a1.43,1.43,0,0,1-1.44-1.44V55.039a1.43,1.43,0,0,1,1.44-1.44h0a1.43,1.43,0,0,1,1.44,1.44v45.513a1.43,1.43,0,0,1-1.44,1.44Z" transform="translate(-84.057)" fill="#fff"/>
    </g>
    <g id="Group_1" data-name="Group 1" transform="translate(167.401 57.254)">
      <line id="Line_1" data-name="Line 1" y2="9.274" transform="translate(0.969 0.969)" fill="#00a651"/>
      <path id="Path_8" data-name="Path 8" d="M479.569,78.012a.981.981,0,0,1-.969-.969V67.769a.969.969,0,1,1,1.938,0v9.274a.981.981,0,0,1-.969.969Z" transform="translate(-478.6 -66.8)" fill="#fff"/>
    </g>
    <g id="Group_2" data-name="Group 2" transform="translate(172.633 60.05)">
      <line id="Line_2" data-name="Line 2" y2="9.274" transform="translate(0.969 0.969)" fill="#00a651"/>
      <path id="Path_9" data-name="Path 9" d="M498.469,88.112a.981.981,0,0,1-.969-.969V77.869a.969.969,0,1,1,1.938,0v9.274a.963.963,0,0,1-.969.969Z" transform="translate(-497.5 -76.9)" fill="#fff"/>
    </g>
    <g id="Group_3" data-name="Group 3" transform="translate(177.865 54.596)">
      <line id="Line_3" data-name="Line 3" y2="9.274" transform="translate(0.969 0.969)" fill="#00a651"/>
      <path id="Path_10" data-name="Path 10" d="M517.369,68.412a.981.981,0,0,1-.969-.969V58.169a.969.969,0,0,1,1.938,0v9.274a.981.981,0,0,1-.969.969Z" transform="translate(-516.4 -57.2)" fill="#fff"/>
    </g>
    <g id="Group_4" data-name="Group 4" transform="translate(120.974 60.244)">
      <path id="Path_11" data-name="Path 11" d="M313.032,77.6V91.8H310.9V77.6Z" transform="translate(-310.9 -77.6)" fill="#fff"/>
    </g>
    <g id="Group_5" data-name="Group 5" transform="translate(126.51 59.275)">
      <path id="Path_12" data-name="Path 12" d="M330.9,89.271V74.1l10.354,10.825V75.069h2.132V90.13l-10.354-10.8v9.938Z" transform="translate(-330.9 -74.1)" fill="#fff"/>
    </g>
    <g id="Group_6" data-name="Group 6" transform="translate(140.934 60.244)">
      <path id="Path_13" data-name="Path 13" d="M388.4,79.621V91.8h-2.132V79.621H383V77.6h8.665v2.021H388.4Z" transform="translate(-383 -77.6)" fill="#fff"/>
    </g>
    <g id="Group_7" data-name="Group 7" transform="translate(151.482 60.244)">
      <path id="Path_14" data-name="Path 14" d="M428.935,79.621h-5.7v3.405h5.537v2.022h-5.537v4.733h5.7V91.8H421.1V77.6h7.835Z" transform="translate(-421.1 -77.6)" fill="#fff"/>
    </g>
    <g id="Group_8" data-name="Group 8" transform="translate(162.14 60.244)">
      <path id="Path_15" data-name="Path 15" d="M461.732,77.6V89.781h4.181V91.8H459.6V77.6Z" transform="translate(-459.6 -77.6)" fill="#fff"/>
    </g>
    <g id="Group_9" data-name="Group 9" transform="translate(178.474 60.244)">
      <path id="Path_16" data-name="Path 16" d="M524.912,77.6V91.8H518.6V89.781h4.181V77.6Z" transform="translate(-518.6 -77.6)" fill="#fff"/>
    </g>
    <g id="Group_10" data-name="Group 10" transform="translate(187.61 60.244)">
      <path id="Path_17" data-name="Path 17" d="M553.732,77.6V91.8H551.6V77.6Z" transform="translate(-551.6 -77.6)" fill="#fff"/>
    </g>
    <g id="Group_3296" data-name="Group 3296" transform="translate(218.603 81.599)">
      <path id="Path_17-2" data-name="Path 17" d="M553.732,77.6v14H551.6v-14Z" transform="translate(-551.6 -77.6)" fill="#fff"/>
    </g>
    <g id="Group_11" data-name="Group 11" transform="translate(192.423 59.966)">
      <path id="Path_18" data-name="Path 18" d="M577.026,83.687h5.87v.471a9.535,9.535,0,0,1-.387,2.823,6.241,6.241,0,0,1-1.245,2.132,6.4,6.4,0,0,1-5.039,2.214,6.868,6.868,0,0,1-5.094-2.159A7.378,7.378,0,0,1,576.418,76.6a6.965,6.965,0,0,1,3.1.692,8.779,8.779,0,0,1,2.713,2.214l-1.523,1.467a5.169,5.169,0,0,0-4.263-2.324,5.074,5.074,0,0,0-3.765,1.55,5.175,5.175,0,0,0-1.523,3.821,5.016,5.016,0,0,0,1.689,3.9,5.1,5.1,0,0,0,3.461,1.412,4.316,4.316,0,0,0,2.852-1.076,3.9,3.9,0,0,0,1.411-2.574h-3.546Z" transform="translate(-568.995 -76.599)" fill="#fff"/>
    </g>
    <g id="Group_12" data-name="Group 12" transform="translate(209.01 60.244)">
      <path id="Path_19" data-name="Path 19" d="M636.735,79.621h-5.7v3.405h5.537v2.022h-5.537v4.733h5.7V91.8H628.9V77.6h7.835Z" transform="translate(-628.9 -77.6)" fill="#fff"/>
    </g>
    <g id="Group_13" data-name="Group 13" transform="translate(219.669 59.275)">
      <path id="Path_20" data-name="Path 20" d="M667.4,89.271V74.1l10.354,10.825V75.069h2.132V90.13l-10.354-10.8v9.938Z" transform="translate(-667.4 -74.1)" fill="#fff"/>
    </g>
    <g id="Group_14" data-name="Group 14" transform="translate(234.064 60.244)">
      <path id="Path_21" data-name="Path 21" d="M724.8,79.621V91.8h-2.132V79.621H719.4V77.6h8.665v2.021H724.8Z" transform="translate(-719.4 -77.6)" fill="#fff"/>
    </g>
    <g id="Group_3295" data-name="Group 3295" transform="translate(158.735 81.601)">
      <path id="Path_21-2" data-name="Path 21" d="M724.8,79.621V91.8h-2.132V79.621H719.4V77.6h8.665v2.021H724.8Z" transform="translate(-719.4 -77.6)" fill="#fff"/>
    </g>
    <g id="Group_15" data-name="Group 15" transform="translate(120.641 63.351)">
      <path id="Path_11164" data-name="Path 11164" d="M354.79,163.267l4.4,6.035h-2.63l-4.042-5.814h-.387V169.3H350V155.1h2.519a6.352,6.352,0,0,1,4.07,1.052,3.9,3.9,0,0,1,1.384,3.1,3.946,3.946,0,0,1-3.183,4.014Zm-2.685-1.605h.692c2.021,0,3.045-.775,3.045-2.325,0-1.44-.993-2.187-2.962-2.187H352.1Z" transform="translate(-338.844 -136.85)" fill="#fff"/>
      <path id="Path_11165" data-name="Path 11165" d="M387.1,161.26a6.715,6.715,0,0,1,2.113-4.975,6.987,6.987,0,0,1,5.082-2.086,7.168,7.168,0,0,1,7.14,7.115,6.748,6.748,0,0,1-2.113,5.028,7.251,7.251,0,0,1-9.9.214,6.612,6.612,0,0,1-2.327-5.3Zm2.086.026a4.979,4.979,0,0,0,1.525,3.744,4.877,4.877,0,0,0,3.5,1.471,4.943,4.943,0,0,0,3.637-1.5,5.024,5.024,0,0,0,1.471-3.664,4.939,4.939,0,0,0-1.471-3.664,4.842,4.842,0,0,0-3.61-1.5,4.927,4.927,0,0,0-3.61,1.5,5,5,0,0,0-1.445,3.61Z" transform="translate(-365.671 -135.951)" fill="#fff"/>
      <path id="Path_11168" data-name="Path 11168" d="M387.1,161.26a6.715,6.715,0,0,1,2.113-4.975,6.987,6.987,0,0,1,5.082-2.086,7.168,7.168,0,0,1,7.14,7.115,6.748,6.748,0,0,1-2.113,5.028,7.251,7.251,0,0,1-9.9.214,6.612,6.612,0,0,1-2.327-5.3Zm2.086.026a4.979,4.979,0,0,0,1.525,3.744,4.877,4.877,0,0,0,3.5,1.471,4.943,4.943,0,0,0,3.637-1.5,5.024,5.024,0,0,0,1.471-3.664,4.939,4.939,0,0,0-1.471-3.664,4.842,4.842,0,0,0-3.61-1.5,4.927,4.927,0,0,0-3.61,1.5,5,5,0,0,0-1.445,3.61Z" transform="translate(-336.671 -135.951)" fill="#fff"/>
      <path id="Path_11169" data-name="Path 11169" d="M387.1,161.26a6.715,6.715,0,0,1,2.113-4.975,6.987,6.987,0,0,1,5.082-2.086,7.168,7.168,0,0,1,7.14,7.115,6.748,6.748,0,0,1-2.113,5.028,7.251,7.251,0,0,1-9.9.214,6.612,6.612,0,0,1-2.327-5.3Zm2.086.026a4.979,4.979,0,0,0,1.525,3.744,4.877,4.877,0,0,0,3.5,1.471,4.943,4.943,0,0,0,3.637-1.5,5.024,5.024,0,0,0,1.471-3.664,4.939,4.939,0,0,0-1.471-3.664,4.842,4.842,0,0,0-3.61-1.5,4.927,4.927,0,0,0-3.61,1.5,5,5,0,0,0-1.445,3.61Z" transform="translate(-306.388 -135.951)" fill="#fff"/>
      <path id="Path_11167" data-name="Path 11167" d="M452.483,160.676l5.342-5.476h2.751l-6.2,6.2,6.228,7.505h-2.782l-4.941-6.09-.427.427V168.9H450.4V155.2h2.057v5.476Z" transform="translate(-382.455 -136.952)" fill="#fff"/>
      <path id="Path_11163" data-name="Path 11163" d="M538.79,163.267l-2.27.221h-.387V169.3H534V155.1h2.519a6.352,6.352,0,0,1,4.07,1.052,3.9,3.9,0,0,1,1.384,3.1,4.036,4.036,0,0,1-.858,2.6,3.943,3.943,0,0,1-2.325,1.412Zm-2.658-1.605h.692c2.021,0,3.045-.775,3.045-2.325,0-1.44-.993-2.187-2.962-2.187h-.775Z" transform="translate(-534 -136.85)" fill="#fff"/>
    </g>
  </g>
</svg>
