<svg xmlns="http://www.w3.org/2000/svg" width="29.2" height="28.963" viewBox="0 0 29.2 28.963">
  <path id="Protocol_Explainer" data-name="Protocol Explainer" d="M17.6,30.263a13.479,13.479,0,0,1-5.325-1.051,13.667,13.667,0,0,1-4.324-2.883,13.329,13.329,0,0,1-2.9-4.307A13.479,13.479,0,0,1,4,16.7,13.478,13.478,0,0,1,12.156,4.183a12.861,12.861,0,0,1,5.172-1.051,16.957,16.957,0,0,1,3.086.288,10.594,10.594,0,0,1,2.374.661V6.523a2.825,2.825,0,0,1-.9,2.052,2.825,2.825,0,0,1-2.052.9H15.972v2.713a1.563,1.563,0,0,1-1.56,1.56H11.7V16.7h8.58a1.564,1.564,0,0,1,1.594,1.594V22.6h1.357a2.938,2.938,0,0,1,1.747.543,2.669,2.669,0,0,1,1.034,1.424,12.531,12.531,0,0,0,2.306-3.714,10.9,10.9,0,0,0,.78-4.019q0-.509-.034-1.238a11.572,11.572,0,0,0-.1-1.17H31a7.34,7.34,0,0,1,.1.984q.034.644.034,1.255A13.6,13.6,0,0,1,30.08,22,13.405,13.405,0,0,1,17.6,30.263ZM15.972,28.4V25.311A2.721,2.721,0,0,1,13.259,22.6V21.241L6.272,14.255q-.136.78-.187,1.272A10.419,10.419,0,0,0,6.035,16.6,11.785,11.785,0,0,0,8.85,24.463,11.077,11.077,0,0,0,15.972,28.4ZM25.841,12.39a.986.986,0,0,1-1.017-1.017V6.421A.986.986,0,0,1,25.841,5.4h.543V4.047a2.73,2.73,0,0,1,.763-1.933,2.506,2.506,0,0,1,3.7,0,2.73,2.73,0,0,1,.763,1.933V5.4h.577A.986.986,0,0,1,33.2,6.421v4.951a.986.986,0,0,1-1.017,1.017Zm1.7-6.986h2.917V4.047a1.665,1.665,0,0,0-.407-1.119,1.4,1.4,0,0,0-2.1,0,1.665,1.665,0,0,0-.407,1.119Z" transform="translate(-4 -1.3)" fill="#fff"/>
</svg>
