<svg xmlns="http://www.w3.org/2000/svg" width="25.836" height="30.798" viewBox="0 0 25.836 30.798">
  <path id="Swap" d="M28.106,32.948a13.458,13.458,0,0,0,1.5-6.2,13.246,13.246,0,0,0-1.5-6.266,13.686,13.686,0,0,0-4.064-4.727l-3.935,3.935V6H33.795L29.86,9.935a15.211,15.211,0,0,1,3.55,4.791,13.829,13.829,0,0,1,1.326,6.031,13.916,13.916,0,0,1-1.818,7.058A14.966,14.966,0,0,1,28.106,32.948ZM9.841,36.8l3.935-3.935A14.648,14.648,0,0,1,10.2,28.072a14.019,14.019,0,0,1-1.3-6.031,13.916,13.916,0,0,1,1.818-7.058A14.821,14.821,0,0,1,15.573,9.85a14.378,14.378,0,0,0-1.134,2.973,12.769,12.769,0,0,0-.406,3.229,13.1,13.1,0,0,0,1.519,6.267,14.092,14.092,0,0,0,4.042,4.727l3.935-3.935V36.8Z" transform="translate(-8.9 -6)" fill="#fff"/>
</svg>
